<mxfile host="app.diagrams.net" modified="2024-06-13T09:54:46.497Z" agent="Mozilla/5.0 (Macintosh; Intel Mac OS X 10_15_7) AppleWebKit/537.36 (KHTML, like Gecko) Chrome/125.0.0.0 Safari/537.36" version="24.5.4" etag="lXlpCDb0HZF-ItxaHPtt" type="github">
  <diagram name="Page-1" id="h4BgYA_v0zbF5fxZiGim">
    <mxGraphModel>
      <root>
        <mxCell id="0" />
        <mxCell id="1" parent="0" />
      </root>
    </mxGraphModel>
  </diagram>
</mxfile>
